<?xml version="1.0" encoding="UTF-8" standalone="no"?><!DOCTYPE svg PUBLIC "-//W3C//DTD SVG 1.1//EN" "http://www.w3.org/Graphics/SVG/1.1/DTD/svg11.dtd"><!-- Generated by graphviz version 2.40.1 (20161225.0304)
 --><!-- Title: %0 Pages: 1 --><svg xmlns="http://www.w3.org/2000/svg" xmlns:xlink="http://www.w3.org/1999/xlink" width="637pt" height="503pt" viewBox="0.00 0.00 637.00 503.00">
<g id="graph0" class="graph" transform="scale(1 1) rotate(0) translate(4 499)">
<title>%0</title>
<polygon fill="#ffffff" stroke="transparent" points="-4,4 -4,-499 633,-499 633,4 -4,4"/>
<g id="clust1" class="cluster">
<title>cluster_ios</title>
<polygon fill="none" stroke="#d3d3d3" points=".3532,-216.907 .3532,-315.907 200.3532,-315.907 200.3532,-216.907 .3532,-216.907"/>
</g>
<g id="clust2" class="cluster">
<title>cluster_android</title>
<polygon fill="none" stroke="#d3d3d3" points="442.9288,-273.899 442.9288,-427.899 628.9288,-427.899 628.9288,-273.899 442.9288,-273.899"/>
</g>
<g id="clust3" class="cluster">
<title>cluster_windows</title>
<polygon fill="none" stroke="#d3d3d3" points="115.0948,.3403 115.0948,-162.6597 334.0948,-162.6597 334.0948,.3403 115.0948,.3403"/>
</g>
<g id="clust4" class="cluster">
<title>cluster_linux</title>
<polygon fill="none" stroke="#d3d3d3" points="165.7778,-324.8794 165.7778,-494.8794 434.7778,-494.8794 434.7778,-324.8794 165.7778,-324.8794"/>
</g>
<g id="clust5" class="cluster">
<title>cluster_web</title>
<polygon fill="none" stroke="#d3d3d3" points="366.4354,-70.1951 366.4354,-209.1951 566.4354,-209.1951 566.4354,-70.1951 366.4354,-70.1951"/>
</g>
<!-- ditto -->
<g id="node1" class="node">
<title>ditto</title>
<polygon fill="none" stroke="#000000" stroke-width="2" points="343.2795,-313.4789 289.2795,-313.4789 289.2795,-277.4789 343.2795,-277.4789 343.2795,-313.4789"/>
<text text-anchor="middle" x="316.2795" y="-291.2789" font-family="Times,serif" font-size="14.00" fill="#000000">Ditto</text>
</g>
<!-- ios -->
<g id="node2" class="node">
<title>ios</title>
<polygon fill="none" stroke="#000000" points="155.6938,-261.1258 118.985,-243.1258 155.6938,-225.1258 192.4027,-243.1258 155.6938,-261.1258"/>
<text text-anchor="middle" x="155.6938" y="-238.9258" font-family="Times,serif" font-size="14.00" fill="#000000">iOS</text>
</g>
<!-- ditto&#45;&gt;ios -->
<g id="edge1" class="edge">
<title>ditto-&gt;ios</title>
<path fill="none" stroke="#000000" d="M289.0384,-286.5979C261.0222,-277.4643 217.4084,-263.2456 187.7488,-253.5762"/>
<polygon fill="#000000" stroke="#000000" points="188.4806,-250.1335 177.8882,-250.3615 186.3108,-256.7888 188.4806,-250.1335"/>
</g>
<!-- android -->
<g id="node3" class="node">
<title>android</title>
<polygon fill="none" stroke="#000000" points="525.7389,-317.5285 464.4934,-299.5285 525.7389,-281.5285 586.9843,-299.5285 525.7389,-317.5285"/>
<text text-anchor="middle" x="525.7389" y="-295.3285" font-family="Times,serif" font-size="14.00" fill="#000000">Android</text>
</g>
<!-- ditto&#45;&gt;android -->
<g id="edge2" class="edge">
<title>ditto-&gt;android</title>
<path fill="none" stroke="#000000" d="M343.6627,-296.0083C372.4706,-296.5653 418.9198,-297.4633 457.6915,-298.2129"/>
<polygon fill="#000000" stroke="#000000" points="457.8178,-301.7159 467.8836,-298.4099 457.9532,-294.7172 457.8178,-301.7159"/>
</g>
<!-- web -->
<g id="node4" class="node">
<title>web</title>
<polygon fill="none" stroke="#000000" points="517.0847,-200.7877 475.8051,-182.7877 517.0847,-164.7877 558.3642,-182.7877 517.0847,-200.7877"/>
<text text-anchor="middle" x="517.0847" y="-178.5877" font-family="Times,serif" font-size="14.00" fill="#000000">Web</text>
</g>
<!-- ditto&#45;&gt;web -->
<g id="edge3" class="edge">
<title>ditto-&gt;web</title>
<path fill="none" stroke="#000000" d="M343.361,-280.2809C381.7513,-258.7364 451.5879,-219.5443 489.987,-197.9948"/>
<polygon fill="#000000" stroke="#000000" points="492.0262,-200.864 499.0339,-192.9178 488.6003,-194.7596 492.0262,-200.864"/>
</g>
<!-- windows -->
<g id="node5" class="node">
<title>windows</title>
<polygon fill="none" stroke="#000000" points="191.5039,-154.4774 123.6044,-136.4774 191.5039,-118.4774 259.4034,-136.4774 191.5039,-154.4774"/>
<text text-anchor="middle" x="191.5039" y="-132.2774" font-family="Times,serif" font-size="14.00" fill="#000000">Windows</text>
</g>
<!-- ditto&#45;&gt;windows -->
<g id="edge4" class="edge">
<title>ditto-&gt;windows</title>
<path fill="none" stroke="#000000" d="M301.9662,-277.2394C279.1666,-248.186 234.6324,-191.436 209.6362,-159.5833"/>
<polygon fill="#000000" stroke="#000000" points="212.3595,-157.3843 203.4326,-151.6781 206.8527,-161.7057 212.3595,-157.3843"/>
</g>
<!-- linux -->
<g id="node6" class="node">
<title>linux</title>
<polygon fill="none" stroke="#000000" points="262.2974,-416.4897 173.3873,-374.7894 262.2974,-333.0892 351.2075,-374.7894 262.2974,-416.4897"/>
<text text-anchor="middle" x="262.2974" y="-378.9894" font-family="Times,serif" font-size="14.00" fill="#000000">Linux</text>
<text text-anchor="middle" x="262.2974" y="-362.1894" font-family="Times,serif" font-size="14.00" fill="#000000">Raspberry Pi</text>
</g>
<!-- ditto&#45;&gt;linux -->
<g id="edge5" class="edge">
<title>ditto-&gt;linux</title>
<path fill="none" stroke="#000000" d="M303.7593,-313.8737C299.5058,-320.1228 294.5717,-327.372 289.6227,-334.6432"/>
<polygon fill="#000000" stroke="#000000" points="286.5793,-332.8942 283.8459,-343.1304 292.366,-336.833 286.5793,-332.8942"/>
</g>
<!-- obj_c -->
<g id="node7" class="node">
<title>obj_c</title>
<text text-anchor="middle" x="150.5332" y="-284.3779" font-family="Times,serif" font-size="14.00" fill="#000000">Objective C</text>
</g>
<!-- ios&#45;&gt;obj_c -->
<!-- java -->
<g id="node9" class="node">
<title>java</title>
<text text-anchor="middle" x="477.5092" y="-344.7499" font-family="Times,serif" font-size="14.00" fill="#000000">Java</text>
</g>
<!-- android&#45;&gt;java -->
<!-- javascript -->
<g id="node18" class="node">
<title>javascript</title>
<text text-anchor="middle" x="410.8635" y="-138.9078" font-family="Times,serif" font-size="14.00" fill="#000000">Javascript</text>
</g>
<!-- web&#45;&gt;javascript -->
<!-- c_windows -->
<g id="node11" class="node">
<title>c_windows</title>
<text text-anchor="middle" x="296.8853" y="-116.2848" font-family="Times,serif" font-size="14.00" fill="#000000">C</text>
</g>
<!-- windows&#45;&gt;c_windows -->
<!-- c_linux -->
<g id="node12" class="node">
<title>c_linux</title>
<text text-anchor="middle" x="391.5033" y="-348.296" font-family="Times,serif" font-size="14.00" fill="#000000">C</text>
</g>
<!-- linux&#45;&gt;c_linux -->
<!-- swift -->
<g id="node8" class="node">
<title>swift</title>
<text text-anchor="middle" x="56.741" y="-286.1154" font-family="Times,serif" font-size="14.00" fill="#000000">Swift</text>
</g>
<!-- obj_c&#45;&gt;swift -->
<!-- react_native_ios -->
<g id="node19" class="node">
<title>react_native_ios</title>
<text text-anchor="middle" x="52.2087" y="-239.8496" font-family="Times,serif" font-size="14.00" fill="#000000">React Native</text>
</g>
<!-- swift&#45;&gt;react_native_ios -->
<!-- kotlin -->
<g id="node10" class="node">
<title>kotlin</title>
<text text-anchor="middle" x="520.8788" y="-397.4143" font-family="Times,serif" font-size="14.00" fill="#000000">Kotlin</text>
</g>
<!-- java&#45;&gt;kotlin -->
<!-- react_native_android -->
<g id="node20" class="node">
<title>react_native_android</title>
<text text-anchor="middle" x="576.3482" y="-352.1456" font-family="Times,serif" font-size="14.00" fill="#000000">React Native</text>
</g>
<!-- kotlin&#45;&gt;react_native_android -->
<!-- cpp_windows -->
<g id="node13" class="node">
<title>cpp_windows</title>
<text text-anchor="middle" x="299.0643" y="-71.513" font-family="Times,serif" font-size="14.00" fill="#000000">C++</text>
</g>
<!-- c_windows&#45;&gt;cpp_windows -->
<!-- cpp_linux -->
<g id="node14" class="node">
<title>cpp_linux</title>
<text text-anchor="middle" x="399.3026" y="-423.2727" font-family="Times,serif" font-size="14.00" fill="#000000">C++</text>
</g>
<!-- c_linux&#45;&gt;cpp_linux -->
<!-- csharp -->
<g id="node17" class="node">
<title>csharp</title>
<text text-anchor="middle" x="240.9372" y="-21.3573" font-family="Times,serif" font-size="14.00" fill="#000000">C#</text>
</g>
<!-- cpp_windows&#45;&gt;csharp -->
<!-- rust_linux -->
<g id="node16" class="node">
<title>rust_linux</title>
<text text-anchor="middle" x="311.988" y="-464.9718" font-family="Times,serif" font-size="14.00" fill="#000000">Rust</text>
</g>
<!-- cpp_linux&#45;&gt;rust_linux -->
<!-- rust_windows -->
<g id="node15" class="node">
<title>rust_windows</title>
<text text-anchor="middle" x="180.6304" y="-66.5258" font-family="Times,serif" font-size="14.00" fill="#000000">Rust</text>
</g>
<!-- csharp&#45;&gt;rust_windows -->
<!-- Wasm -->
<g id="node21" class="node">
<title>Wasm</title>
<text text-anchor="middle" x="487.7737" y="-91.9223" font-family="Times,serif" font-size="14.00" fill="#000000">Wasm</text>
</g>
<!-- javascript&#45;&gt;Wasm -->
</g>
</svg>